<svg xmlns="http://www.w3.org/2000/svg" width="251.18231201171875" height="255.54913330078125" viewBox="-29.06096649169922 -20.79416275024414 251.18231201171875 255.54913330078125"><title>Neo4j Graph Visualization</title><desc>Created using Neo4j (http://www.neo4j.com/)</desc><g class="layer relationships"><g class="relationship" transform="translate(83.70548209352006 114.36075274388901) rotate(414.71209574207404)"><path class="outline" fill="#A5ABB6" stroke="none" d="M 25 0.5 L 29.702299387959854 0.5 L 29.702299387959854 -0.5 L 25 -0.5 Z M 75.26479938795985 0.5 L 79.96709877591971 0.5 L 79.96709877591971 3.5 L 86.96709877591971 0 L 79.96709877591971 -3.5 L 79.96709877591971 -0.5 L 75.26479938795985 -0.5 Z"/><text text-anchor="middle" pointer-events="none" font-size="8px" fill="#000000" x="52.483549387959854" y="3" font-family="sans-serif">ACTED_IN</text></g><g class="relationship" transform="translate(83.70548209352006 114.36075274388901) rotate(347.99840704845565)"><path class="outline" fill="#A5ABB6" stroke="none" d="M 25 0.5 L 29.64922748175543 0.5 L 29.64922748175543 -0.5 L 25 -0.5 Z M 75.21172748175543 0.5 L 79.86095496351086 0.5 L 79.86095496351086 3.5 L 86.86095496351086 0 L 79.86095496351086 -3.5 L 79.86095496351086 -0.5 L 75.21172748175543 -0.5 Z"/><text text-anchor="middle" pointer-events="none" font-size="8px" fill="#000000" x="52.43047748175543" y="3" font-family="sans-serif">ACTED_IN</text></g><g class="relationship" transform="translate(83.70548209352006 114.36075274388901) rotate(288.33671471395036)"><path class="outline" fill="#A5ABB6" stroke="none" d="M 25 0.5 L 29.635428643577974 0.5 L 29.635428643577974 -0.5 L 25 -0.5 Z M 75.19792864357797 0.5 L 79.83335728715595 0.5 L 79.83335728715595 3.5 L 86.83335728715595 0 L 79.83335728715595 -3.5 L 79.83335728715595 -0.5 L 75.19792864357797 -0.5 Z"/><text text-anchor="middle" pointer-events="none" font-size="8px" fill="#000000" x="52.416678643577974" y="3" font-family="sans-serif">ACTED_IN</text></g><g class="relationship" transform="translate(83.70548209352006 114.36075274388901) rotate(221.5378319545697)"><path class="outline" fill="#A5ABB6" stroke="none" d="M 25 0.5 L 29.673613384143643 0.5 L 29.673613384143643 -0.5 L 25 -0.5 Z M 75.23611338414364 0.5 L 79.90972676828729 0.5 L 79.90972676828729 3.5 L 86.90972676828729 0 L 79.90972676828729 -3.5 L 79.90972676828729 -0.5 L 75.23611338414364 -0.5 Z"/><text text-anchor="middle" pointer-events="none" font-size="8px" fill="#000000" x="52.45486338414364" y="3" transform="rotate(180 52.45486338414364 0)" font-family="sans-serif">ACTED_IN</text></g><g class="relationship" transform="translate(83.70548209352006 114.36075274388901) rotate(498.05227340644944)"><path class="outline" fill="#A5ABB6" stroke="none" d="M 25 0.5 L 28.481633696165474 0.5 L 28.481633696165474 -0.5 L 25 -0.5 Z M 74.04413369616547 0.5 L 77.52576739233095 0.5 L 77.52576739233095 3.5 L 84.52576739233095 0 L 77.52576739233095 -3.5 L 77.52576739233095 -0.5 L 74.04413369616547 -0.5 Z"/><text text-anchor="middle" pointer-events="none" font-size="8px" fill="#000000" x="51.262883696165474" y="3" transform="rotate(180 51.262883696165474 0)" font-family="sans-serif">ACTED_IN</text></g></g><g class="layer nodes"><g class="node" transform="translate(148.3872309620649,205.7549679415866)"><circle class="outline" cx="0" cy="0" r="25" fill="#F79767" stroke="#f36924" stroke-width="2px"/><text text-anchor="middle" pointer-events="none" font-family="sans-serif" dy="1.5625" font-size="25" fill="#FFFFFF"/><text text-anchor="middle" pointer-events="none" font-family="sans-serif" dy="1.5625" font-size="25" fill="#FFFFFF"/><text text-anchor="middle" pointer-events="none" x="0" y="0" font-size="10px" fill="#FFFFFF" font-family="sans-serif"> Cloud</text><text text-anchor="middle" pointer-events="none" x="0" y="10" font-size="10px" fill="#FFFFFF" font-family="sans-serif"> Atlas</text></g><g class="node" transform="translate(83.70548209352006,114.36075274388901)"><circle class="outline" cx="0" cy="0" r="25" fill="#57C7E3" stroke="#23b3d7" stroke-width="2px"/><text text-anchor="middle" pointer-events="none" font-family="sans-serif" dy="1.5625" font-size="25" fill="#2A2C34"/><text text-anchor="middle" pointer-events="none" font-family="sans-serif" dy="1.5625" font-size="25" fill="#2A2C34"/><text text-anchor="middle" pointer-events="none" x="0" y="0" font-size="10px" fill="#2A2C34" font-family="sans-serif"> Hugo</text><text text-anchor="middle" pointer-events="none" x="0" y="10" font-size="10px" fill="#2A2C34" font-family="sans-serif"> Weaving</text></g><g class="node" transform="translate(193.12136016210334,91.10051044443045)"><circle class="outline" cx="0" cy="0" r="25" fill="#F79767" stroke="#f36924" stroke-width="2px"/><text text-anchor="middle" pointer-events="none" font-family="sans-serif" dy="1.5625" font-size="25" fill="#FFFFFF"/><text text-anchor="middle" pointer-events="none" font-family="sans-serif" dy="1.5625" font-size="25" fill="#FFFFFF"/><text text-anchor="middle" pointer-events="none" x="0" y="0" font-size="10px" fill="#FFFFFF" font-family="sans-serif"> V for</text><text text-anchor="middle" pointer-events="none" x="0" y="10" font-size="10px" fill="#FFFFFF" font-family="sans-serif"> Vendetta</text></g><g class="node" transform="translate(118.88834311467394,8.205837207759231)"><circle class="outline" cx="0" cy="0" r="25" fill="#F79767" stroke="#f36924" stroke-width="2px"/><text text-anchor="middle" pointer-events="none" font-family="sans-serif" dy="1.5625" font-size="25" fill="#FFFFFF"/><text text-anchor="middle" pointer-events="none" font-family="sans-serif" dy="1.5625" font-size="25" fill="#FFFFFF"/><text text-anchor="middle" pointer-events="none" font-family="sans-serif" dy="1.5625" font-size="25" fill="#FFFFFF"/><text text-anchor="middle" pointer-events="none" x="0" y="-5" font-size="10px" fill="#FFFFFF" font-family="sans-serif"> The</text><text text-anchor="middle" pointer-events="none" x="0" y="5" font-size="10px" fill="#FFFFFF" font-family="sans-serif"> Matrix</text><text text-anchor="middle" pointer-events="none" x="0" y="15" font-size="10px" fill="#FFFFFF" font-family="sans-serif"> Revol…</text></g><g class="node" transform="translate(-0.06096665362990261,40.15179769368087)"><circle class="outline" cx="0" cy="0" r="25" fill="#F79767" stroke="#f36924" stroke-width="2px"/><text text-anchor="middle" pointer-events="none" font-family="sans-serif" dy="1.5625" font-size="25" fill="#FFFFFF"/><text text-anchor="middle" pointer-events="none" font-family="sans-serif" dy="1.5625" font-size="25" fill="#FFFFFF"/><text text-anchor="middle" pointer-events="none" font-family="sans-serif" dy="1.5625" font-size="25" fill="#FFFFFF"/><text text-anchor="middle" pointer-events="none" x="0" y="-5" font-size="10px" fill="#FFFFFF" font-family="sans-serif"> The</text><text text-anchor="middle" pointer-events="none" x="0" y="5" font-size="10px" fill="#FFFFFF" font-family="sans-serif"> Matrix</text><text text-anchor="middle" pointer-events="none" x="0" y="15" font-size="10px" fill="#FFFFFF" font-family="sans-serif"> Reloa…</text></g><g class="node" transform="translate(2.2451457587456063,187.57350659937794)"><circle class="outline" cx="0" cy="0" r="25" fill="#F79767" stroke="#f36924" stroke-width="2px"/><text text-anchor="middle" pointer-events="none" font-family="sans-serif" dy="1.5625" font-size="25" fill="#FFFFFF"/><text text-anchor="middle" pointer-events="none" font-family="sans-serif" dy="1.5625" font-size="25" fill="#FFFFFF"/><text text-anchor="middle" pointer-events="none" x="0" y="0" font-size="10px" fill="#FFFFFF" font-family="sans-serif"> The</text><text text-anchor="middle" pointer-events="none" x="0" y="10" font-size="10px" fill="#FFFFFF" font-family="sans-serif"> Matrix</text></g></g></svg>