<svg xmlns="http://www.w3.org/2000/svg" width="265.04522705078125" height="284.62518310546875" viewBox="-39.91169738769531 -30.281843185424805 265.04522705078125 284.62518310546875"><title>Neo4j Graph Visualization</title><desc>Created using Neo4j (http://www.neo4j.com/)</desc><g class="layer relationships"><g class="relationship" transform="translate(196.13351304496592 225.3433476454225) rotate(231.09645275248545)"><path class="outline" fill="#A5ABB6" stroke="none" d="M 25 0.5 L 31.007145370227597 0.5 L 31.007145370227597 -0.5 L 25 -0.5 Z M 76.56964537022759 0.5 L 82.5767907404552 0.5 L 82.5767907404552 3.5 L 89.5767907404552 0 L 82.5767907404552 -3.5 L 82.5767907404552 -0.5 L 76.56964537022759 -0.5 Z"/><text text-anchor="middle" pointer-events="none" font-size="8px" fill="#000000" x="53.7883953702276" y="3" transform="rotate(180 53.7883953702276 0)" font-family="sans-serif">ACTED_IN</text></g><g class="relationship" transform="translate(23.1611922212845 157.31460643593658) rotate(304.35785784394983)"><path class="outline" fill="#A5ABB6" stroke="none" d="M 25 0.5 L 25.89403820477161 0.5 L 25.89403820477161 -0.5 L 25 -0.5 Z M 67.00731945477162 0.5 L 67.90135765954322 0.5 L 67.90135765954322 3.5 L 74.90135765954322 0 L 67.90135765954322 -3.5 L 67.90135765954322 -0.5 L 67.00731945477162 -0.5 Z"/><text text-anchor="middle" pointer-events="none" font-size="8px" fill="#000000" x="46.45067882977161" y="3" font-family="sans-serif">ACTED…</text></g><g class="relationship" transform="translate(23.1611922212845 157.31460643593658) rotate(276.704377057019)"><path class="outline" fill="#A5ABB6" stroke="none" d="M 25 0.5 L 42.99602835092249 0.5 L 42.99602835092249 -0.5 L 25 -0.5 Z M 88.55852835092249 0.5 L 106.55455670184497 0.5 L 106.55455670184497 3.5 L 113.55455670184497 0 L 106.55455670184497 -3.5 L 106.55455670184497 -0.5 L 88.55852835092249 -0.5 Z"/><text text-anchor="middle" pointer-events="none" font-size="8px" fill="#000000" x="65.77727835092249" y="3" font-family="sans-serif">ACTED_IN</text></g><g class="relationship" transform="translate(23.1611922212845 157.31460643593658) rotate(348.1826667097703)"><path class="outline" fill="#A5ABB6" stroke="none" d="M 25 0.5 L 25.32083577046693 0.5 L 25.32083577046693 -0.5 L 25 -0.5 Z M 70.88333577046693 0.5 L 71.20417154093386 0.5 L 71.20417154093386 3.5 L 78.20417154093386 0 L 71.20417154093386 -3.5 L 71.20417154093386 -0.5 L 70.88333577046693 -0.5 Z"/><text text-anchor="middle" pointer-events="none" font-size="8px" fill="#000000" x="48.10208577046693" y="3" font-family="sans-serif">ACTED_IN</text></g><g class="relationship" transform="translate(175.12630902846874 46.314401023387674) rotate(523.3814543317035)"><path class="outline" fill="#A5ABB6" stroke="none" d="M 25 0.5 L 25.819059915577718 0.5 L 25.819059915577718 -0.5 L 25 -0.5 Z M 66.93234116557772 0.5 L 67.75140108115544 0.5 L 67.75140108115544 3.5 L 74.75140108115544 0 L 67.75140108115544 -3.5 L 67.75140108115544 -0.5 L 66.93234116557772 -0.5 Z"/><text text-anchor="middle" pointer-events="none" font-size="8px" fill="#000000" x="46.37570054057772" y="3" transform="rotate(180 46.37570054057772 0)" font-family="sans-serif">ACTED…</text></g><g class="relationship" transform="translate(175.12630902846874 46.314401023387674) rotate(191.08621278015534)"><path class="outline" fill="#A5ABB6" stroke="none" d="M 25 0.5 L 42.90449891693332 0.5 L 42.90449891693332 -0.5 L 25 -0.5 Z M 88.46699891693332 0.5 L 106.37149783386664 0.5 L 106.37149783386664 3.5 L 113.37149783386664 0 L 106.37149783386664 -3.5 L 106.37149783386664 -0.5 L 88.46699891693332 -0.5 Z"/><text text-anchor="middle" pointer-events="none" font-size="8px" fill="#000000" x="65.68574891693332" y="3" transform="rotate(180 65.68574891693332 0)" font-family="sans-serif">ACTED_IN</text></g><g class="relationship" transform="translate(175.12630902846874 46.314401023387674) rotate(479.5508084429632)"><path class="outline" fill="#A5ABB6" stroke="none" d="M 25 0.5 L 25.370013771971863 0.5 L 25.370013771971863 -0.5 L 25 -0.5 Z M 70.93251377197186 0.5 L 71.30252754394373 0.5 L 71.30252754394373 3.5 L 78.30252754394373 0 L 71.30252754394373 -3.5 L 71.30252754394373 -0.5 L 70.93251377197186 -0.5 Z"/><text text-anchor="middle" pointer-events="none" font-size="8px" fill="#000000" x="48.15126377197186" y="3" transform="rotate(180 48.15126377197186 0)" font-family="sans-serif">ACTED_IN</text></g><g class="relationship" transform="translate(138.61219545308617 -1.2818427999073105) rotate(487.8103716174613)"><path class="outline" fill="#A5ABB6" stroke="none" d="M 25 0.5 L 27.009724155326445 0.5 L 27.009724155326445 -0.5 L 25 -0.5 Z M 62.345661655326445 0.5 L 64.35538581065289 0.5 L 64.35538581065289 3.5 L 71.35538581065289 0 L 64.35538581065289 -3.5 L 64.35538581065289 -0.5 L 62.345661655326445 -0.5 Z"/><text text-anchor="middle" pointer-events="none" font-size="8px" fill="#000000" x="44.677692905326445" y="3" transform="rotate(180 44.677692905326445 0)" font-family="sans-serif">ACTE…</text></g><g class="relationship" transform="translate(138.61219545308617 -1.2818427999073105) rotate(528.0619899713827)"><path class="outline" fill="#A5ABB6" stroke="none" d="M 25 0.5 L 26.678269618939716 0.5 L 26.678269618939716 -0.5 L 25 -0.5 Z M 67.79155086893971 0.5 L 69.46982048787943 0.5 L 69.46982048787943 3.5 L 76.46982048787943 0 L 69.46982048787943 -3.5 L 69.46982048787943 -0.5 L 67.79155086893971 -0.5 Z"/><text text-anchor="middle" pointer-events="none" font-size="8px" fill="#000000" x="47.234910243939716" y="3" transform="rotate(180 47.234910243939716 0)" font-family="sans-serif">ACTED…</text></g><g class="relationship" transform="translate(138.61219545308617 -1.2818427999073105) rotate(455.9944166468509)"><path class="outline" fill="#A5ABB6" stroke="none" d="M 25 0.5 L 42.82715080776896 0.5 L 42.82715080776896 -0.5 L 25 -0.5 Z M 88.38965080776896 0.5 L 106.21680161553792 0.5 L 106.21680161553792 3.5 L 113.21680161553792 0 L 106.21680161553792 -3.5 L 106.21680161553792 -0.5 L 88.38965080776896 -0.5 Z"/><text text-anchor="middle" pointer-events="none" font-size="8px" fill="#000000" x="65.60840080776896" y="3" transform="rotate(180 65.60840080776896 0)" font-family="sans-serif">ACTED_IN</text></g><g class="relationship" transform="translate(-10.911699364121993 107.93823433857047) rotate(339.9034074131373)"><path class="outline" fill="#A5ABB6" stroke="none" d="M 25 0.5 L 26.990802119865485 0.5 L 26.990802119865485 -0.5 L 25 -0.5 Z M 62.326739619865485 0.5 L 64.31754173973097 0.5 L 64.31754173973097 3.5 L 71.31754173973097 0 L 64.31754173973097 -3.5 L 64.31754173973097 -0.5 L 62.326739619865485 -0.5 Z"/><text text-anchor="middle" pointer-events="none" font-size="8px" fill="#000000" x="44.658770869865485" y="3" font-family="sans-serif">ACTE…</text></g><g class="relationship" transform="translate(-10.911699364121993 107.93823433857047) rotate(299.66213851648405)"><path class="outline" fill="#A5ABB6" stroke="none" d="M 25 0.5 L 26.71142743495753 0.5 L 26.71142743495753 -0.5 L 25 -0.5 Z M 67.82470868495753 0.5 L 69.53613611991506 0.5 L 69.53613611991506 3.5 L 76.53613611991506 0 L 69.53613611991506 -3.5 L 69.53613611991506 -0.5 L 67.82470868495753 -0.5 Z"/><text text-anchor="middle" pointer-events="none" font-size="8px" fill="#000000" x="47.26806805995753" y="3" font-family="sans-serif">ACTED…</text></g><g class="relationship" transform="translate(-10.911699364121993 107.93823433857047) rotate(371.807825673175)"><path class="outline" fill="#A5ABB6" stroke="none" d="M 25 0.5 L 42.72378465314192 0.5 L 42.72378465314192 -0.5 L 25 -0.5 Z M 88.28628465314192 0.5 L 106.01006930628384 0.5 L 106.01006930628384 3.5 L 113.01006930628384 0 L 106.01006930628384 -3.5 L 106.01006930628384 -0.5 L 88.28628465314192 -0.5 Z"/><text text-anchor="middle" pointer-events="none" font-size="8px" fill="#000000" x="65.50503465314192" y="3" font-family="sans-serif">ACTED_IN</text></g></g><g class="layer nodes"><g class="node" transform="translate(124.17800080325247,136.17919994908277)"><circle class="outline" cx="0" cy="0" r="25" fill="#F79767" stroke="#f36924" stroke-width="2px"/><text text-anchor="middle" pointer-events="none" font-family="sans-serif" dy="1.5625" font-size="25" fill="#FFFFFF"/><text text-anchor="middle" pointer-events="none" font-family="sans-serif" dy="1.5625" font-size="25" fill="#FFFFFF"/><text text-anchor="middle" pointer-events="none" x="0" y="0" font-size="10px" fill="#FFFFFF" font-family="sans-serif"> The</text><text text-anchor="middle" pointer-events="none" x="0" y="10" font-size="10px" fill="#FFFFFF" font-family="sans-serif"> Matrix</text></g><g class="node" transform="translate(196.13351304496592,225.3433476454225)"><circle class="outline" cx="0" cy="0" r="25" fill="#57C7E3" stroke="#23b3d7" stroke-width="2px"/><text text-anchor="middle" pointer-events="none" font-family="sans-serif" dy="1.5625" font-size="25" fill="#2A2C34"/><text text-anchor="middle" pointer-events="none" font-family="sans-serif" dy="1.5625" font-size="25" fill="#2A2C34"/><text text-anchor="middle" pointer-events="none" x="0" y="0" font-size="10px" fill="#2A2C34" font-family="sans-serif"> Emil</text><text text-anchor="middle" pointer-events="none" x="0" y="10" font-size="10px" fill="#2A2C34" font-family="sans-serif"> Eifrem</text></g><g class="node" transform="translate(23.1611922212845,157.31460643593658)"><circle class="outline" cx="0" cy="0" r="25" fill="#57C7E3" stroke="#23b3d7" stroke-width="2px"/><text text-anchor="middle" pointer-events="none" font-family="sans-serif" dy="1.5625" font-size="25" fill="#2A2C34"/><text text-anchor="middle" pointer-events="none" font-family="sans-serif" dy="1.5625" font-size="25" fill="#2A2C34"/><text text-anchor="middle" pointer-events="none" x="0" y="0" font-size="10px" fill="#2A2C34" font-family="sans-serif"> Hugo</text><text text-anchor="middle" pointer-events="none" x="0" y="10" font-size="10px" fill="#2A2C34" font-family="sans-serif"> Weaving</text></g><g class="node" transform="translate(175.12630902846874,46.314401023387674)"><circle class="outline" cx="0" cy="0" r="25" fill="#57C7E3" stroke="#23b3d7" stroke-width="2px"/><text text-anchor="middle" pointer-events="none" font-family="sans-serif" dy="1.5625" font-size="25" fill="#2A2C34"/><text text-anchor="middle" pointer-events="none" font-family="sans-serif" dy="1.5625" font-size="25" fill="#2A2C34"/><text text-anchor="middle" pointer-events="none" x="0" y="0" font-size="10px" fill="#2A2C34" font-family="sans-serif"> Laurence</text><text text-anchor="middle" pointer-events="none" x="0" y="10" font-size="10px" fill="#2A2C34" font-family="sans-serif"> Fishbur…</text></g><g class="node" transform="translate(138.61219545308617,-1.2818427999073105)"><circle class="outline" cx="0" cy="0" r="25" fill="#57C7E3" stroke="#23b3d7" stroke-width="2px"/><text text-anchor="middle" pointer-events="none" font-family="sans-serif" dy="1.5625" font-size="25" fill="#2A2C34"/><text text-anchor="middle" pointer-events="none" x="0" y="5" font-size="10px" fill="#2A2C34" font-family="sans-serif"> Carrie-A…</text></g><g class="node" transform="translate(-10.911699364121993,107.93823433857047)"><circle class="outline" cx="0" cy="0" r="25" fill="#57C7E3" stroke="#23b3d7" stroke-width="2px"/><text text-anchor="middle" pointer-events="none" font-family="sans-serif" dy="1.5625" font-size="25" fill="#2A2C34"/><text text-anchor="middle" pointer-events="none" font-family="sans-serif" dy="1.5625" font-size="25" fill="#2A2C34"/><text text-anchor="middle" pointer-events="none" x="0" y="0" font-size="10px" fill="#2A2C34" font-family="sans-serif"> Keanu</text><text text-anchor="middle" pointer-events="none" x="0" y="10" font-size="10px" fill="#2A2C34" font-family="sans-serif"> Reeves</text></g><g class="node" transform="translate(39.336966890685595,19.707522691350476)"><circle class="outline" cx="0" cy="0" r="25" fill="#F79767" stroke="#f36924" stroke-width="2px"/><text text-anchor="middle" pointer-events="none" font-family="sans-serif" dy="1.5625" font-size="25" fill="#FFFFFF"/><text text-anchor="middle" pointer-events="none" font-family="sans-serif" dy="1.5625" font-size="25" fill="#FFFFFF"/><text text-anchor="middle" pointer-events="none" font-family="sans-serif" dy="1.5625" font-size="25" fill="#FFFFFF"/><text text-anchor="middle" pointer-events="none" x="0" y="-5" font-size="10px" fill="#FFFFFF" font-family="sans-serif"> The</text><text text-anchor="middle" pointer-events="none" x="0" y="5" font-size="10px" fill="#FFFFFF" font-family="sans-serif"> Matrix</text><text text-anchor="middle" pointer-events="none" x="0" y="15" font-size="10px" fill="#FFFFFF" font-family="sans-serif"> Reloa…</text></g><g class="node" transform="translate(79.54151880291457,74.84315660771594)"><circle class="outline" cx="0" cy="0" r="25" fill="#F79767" stroke="#f36924" stroke-width="2px"/><text text-anchor="middle" pointer-events="none" font-family="sans-serif" dy="1.5625" font-size="25" fill="#FFFFFF"/><text text-anchor="middle" pointer-events="none" font-family="sans-serif" dy="1.5625" font-size="25" fill="#FFFFFF"/><text text-anchor="middle" pointer-events="none" font-family="sans-serif" dy="1.5625" font-size="25" fill="#FFFFFF"/><text text-anchor="middle" pointer-events="none" x="0" y="-5" font-size="10px" fill="#FFFFFF" font-family="sans-serif"> The</text><text text-anchor="middle" pointer-events="none" x="0" y="5" font-size="10px" fill="#FFFFFF" font-family="sans-serif"> Matrix</text><text text-anchor="middle" pointer-events="none" x="0" y="15" font-size="10px" fill="#FFFFFF" font-family="sans-serif"> Revol…</text></g></g></svg>